{"title":"Big.Mommas.-.Like.Father.Like.Son.[2011].DvdRip.Xvid-KnÃƒÂ£","uid":6542483,"size":2141423616,"categoryP":"video","categoryS":"movies","magnet":"?xt=urn:btih:08953fa083c7524fd8d41b48d21b7a273e171a9a&amp;dn=Big.Mommas.-.Like.Father.Like.Son.%5B2011%5D.DvdRip.Xvid-Kn%C3%83%C2%A3&amp;tr=udp%3A%2F%2Ftracker.openbittorrent.com%3A80&amp;tr=udp%3A%2F%2Fopen.demonii.com%3A1337&amp;tr=udp%3A%2F%2Ftracker.coppersurfer.tk%3A6969&amp;tr=udp%3A%2F%2Fexodus.desync.com%3A6969","seeders":0,"leechers":1,"uploader":"Jon.Pson","files":1,"time":1310742105,"description":"FBI agent Malcolm Turner and his stepson Trent go undercover at an all-girls performing arts school after Trent witnesses a murder. \n\n\nGeneral\nComplete name                    : Z:\\Movies\\Big.Mommas.-.Like.Father.Like.Son.[2011].DvdRip.Xvid-KnÃƒÂ£\\Big.Mommas.-.Like.Father.Like.Son.[2011].DvdRip.Xvid-KnÃƒÂ£.avi\nFormat                           : AVI\nFormat/Info                      : Audio Video Interleave\nFormat profile                   : OpenDML\nFile size                        : 1.99 GiB\nDuration                         : 1h 47mn\nOverall bit rate                 : 2 660 Kbps\nWriting application              : VirtualDubMod 1.5.4.1 (build 2178/release)\nWriting library                  : VirtualDubMod build 2178/release\n\nVideo\nID                               : 0\nFormat                           : MPEG-4 Visual\nFormat profile                   : Advanced Simple@L5\nFormat settings, BVOP            : No\nFormat settings, QPel            : No\nFormat settings, GMC             : No warppoints\nFormat settings, Matrix          : Custom\nCodec ID                         : XVID\nCodec ID/Hint                    : XviD\nDuration                         : 1h 47mn\nBit rate                         : 2 203 Kbps\nWidth                            : 720 pixels\nHeight                           : 304 pixels\nDisplay aspect ratio             : 2.35:1\nFrame rate                       : 23.976 fps\nColor space                      : YUV\nChroma subsampling               : 4:2:0\nBit depth                        : 8 bits\nScan type                        : Progressive\nCompression mode                 : Lossy\nBits/(Pixel*Frame)               : 0.420\nStream size                      : 1.65 GiB (83%)\nWriting library                  : XviD 1.2.1 (UTC 2008-12-04)\n\nAudio\nID                               : 1\nFormat                           : AC-3\nFormat/Info                      : Audio Coding 3\nMode extension                   : CM (complete main)\nCodec ID                         : 2000\nDuration                         : 1h 47mn\nBit rate mode                    : Constant\nBit rate                         : 448 Kbps\nChannel(s)                       : 6 channels\nChannel positions                : Front: L C R, Side: L R, LFE\nSampling rate                    : 48.0 KHz\nBit depth                        : 16 bits\nCompression mode                 : Lossy\nStream size                      : 344 MiB (17%)\nAlignment                        : Split accross interleaves\nInterleave, duration             : 96 ms (2.30 video frames)\nInterleave, preload duration     : 96 ms\nLanguage                         : English\n\n","torrent":{"xt":"urn:btih:08953fa083c7524fd8d41b48d21b7a273e171a9a","amp;dn":"Big.Mommas.-.Like.Father.Like.Son.%5B2011%5D.DvdRip.Xvid-Kn%C3%83%C2%A3","amp;tr":["udp%3A%2F%2Ftracker.openbittorrent.com%3A80","udp%3A%2F%2Fopen.demonii.com%3A1337","udp%3A%2F%2Ftracker.coppersurfer.tk%3A6969","udp%3A%2F%2Fexodus.desync.com%3A6969"],"infoHash":"08953fa083c7524fd8d41b48d21b7a273e171a9a","infoHashBuffer":{"type":"Buffer","data":[8,149,63,160,131,199,82,79,216,212,27,72,210,27,122,39,62,23,26,154]},"announce":[],"urlList":[]}}